<?xml version="1.0" standalone="no"?>
<!DOCTYPE svg PUBLIC "-//W3C//DTD SVG 20010904//EN"
 "http://www.w3.org/TR/2001/REC-SVG-20010904/DTD/svg10.dtd">
<svg version="1.0" xmlns="http://www.w3.org/2000/svg"
 width="120.000000pt" height="120.000000pt" viewBox="0 0 120.000000 120.000000"
 preserveAspectRatio="xMidYMid meet">
<metadata>
Created by potrace 1.11, written by Peter Selinger 2001-2013
</metadata>
<g transform="translate(0.000000,120.000000) scale(0.100000,-0.100000)"
fill="#000000" stroke="none">
<path d="M492 1169 c-54 -10 -139 -50 -173 -81 -39 -35 -76 -97 -93 -156 -19
-66 -15 -198 9 -267 32 -96 108 -237 205 -383 128 -191 185 -262 210 -262 24
0 80 83 166 242 158 295 218 578 152 718 -32 69 -76 114 -150 151 -32 16 -58
27 -58 24 0 -3 -9 -1 -21 6 -26 13 -188 19 -247 8z"/>
</g>
</svg>
